 <svg  version="1.0" xmlns="http://www.w3.org/2000/svg"  width="300.000000pt" height="52.000000pt" viewBox="0 0 300.000000 52.000000"  preserveAspectRatio="xMidYMid meet">  <g transform="translate(0.000000,52.000000) scale(0.100000,-0.100000)" fill="#551655" stroke="none"> <path d="M214 440 c-112 -26 -174 -159 -122 -260 59 -114 199 -144 290 -62 90 81 92 199 7 278 -52 48 -104 61 -175 44z m91 -20 c0 -1 7 -3 17 -5 28 -5 45 -18 77 -59 26 -33 31 -47 31 -96 0 -44 -5 -64 -22 -86 -32 -41 -59 -64 -69 -58 -5 3 -9 0 -9 -6 0 -7 -7 -9 -16 -6 -8 3 -13 2 -10 -3 3 -5 -8 -11 -24 -13 -17 -3 -30 -2 -30 2 0 3 -8 6 -17 7 -36 3 -74 23 -67 35 4 7 3 8 -4 4 -7 -4 -12 -2 -12 4 0 6 -4 9 -8 6 -5 -3 -17 12 -27 32 -23 45 -24 52 -12 76 6 13 6 16 -2 11 -8 -4 -10 1 -7 17 7 39 25 78 35 78 5 0 12 8 16 18 6 22 51 45 67 36 7 -4 8 -2 4 5 -6 9 5 11 41 7 26 -2 48 -5 48 -6z"/> <path d="M223 275 c-20 -19 -33 -35 -27 -35 6 0 23 14 39 30 32 33 56 38 75 15 10 -13 9 -15 -9 -15 -19 0 -25 -10 -22 -32 0 -3 -24 -5 -54 -3 -33 1 -61 -2 -72 -10 -15 -11 -7 -12 48 -8 38 3 74 1 86 -5 14 -8 30 -8 56 0 51 16 46 27 -8 20 -37 -4 -45 -2 -45 12 0 9 8 16 20 16 23 0 24 4 10 31 -16 30 -55 23 -97 -16z"/> <path d="M600 257 l0 -103 63 1 c56 1 62 3 65 23 3 20 -1 22 -37 22 l-41 0 0 80 c0 79 0 80 -25 80 l-25 0 0 -103z"/> <path d="M752 259 l3 -102 63 -1 c59 -2 62 -1 62 21 0 20 -5 23 -40 23 -34 0 -40 3 -40 21 0 18 5 21 30 17 26 -4 30 -1 30 19 0 19 -5 23 -30 23 -23 0 -30 4 -30 20 0 18 4 20 40 14 38 -6 40 -5 40 20 0 25 -1 26 -65 26 l-66 0 3 -101z"/> <path d="M943 262 c-24 -53 -43 -101 -43 -105 0 -4 11 -7 24 -7 15 0 26 7 29 20 4 17 14 20 55 20 41 0 51 -3 55 -20 3 -14 14 -20 31 -20 14 0 26 2 26 3 0 2 -20 48 -45 103 -36 80 -48 99 -67 102 -20 2 -28 -10 -65 -96z m82 2 c8 -20 15 -37 15 -38 0 0 -13 -1 -30 -1 -16 0 -30 2 -30 4 0 8 24 71 27 71 1 0 10 -16 18 -36z"/> <path d="M1140 255 l0 -105 25 0 c22 0 25 4 25 35 0 45 18 45 48 0 13 -21 30 -35 42 -35 25 0 25 5 -1 46 -19 31 -19 35 -5 50 9 8 16 28 16 44 0 42 -40 70 -101 70 l-49 0 0 -105z m88 56 c21 -13 10 -46 -16 -49 -19 -3 -22 1 -22 27 0 31 13 39 38 22z"/> <path d="M1330 255 l0 -105 26 0 c25 0 26 1 22 60 -1 33 -1 60 2 60 3 -1 25 -28 49 -60 26 -35 53 -60 63 -60 16 0 18 10 18 105 l0 105 -25 0 c-24 0 -25 -3 -25 -61 l0 -61 -46 61 c-28 37 -53 61 -65 61 -18 0 -19 -8 -19 -105z"/> <path d="M1540 255 l0 -105 25 0 25 0 0 105 0 105 -25 0 -25 0 0 -105z"/> <path d="M1622 258 c3 -97 4 -103 25 -106 20 -3 22 1 25 57 l3 61 48 -60 c69 -87 77 -82 77 45 l0 105 -26 0 c-27 0 -27 0 -20 -60 4 -33 5 -60 3 -60 -2 0 -25 27 -51 60 -29 37 -55 60 -67 60 -19 0 -20 -6 -17 -102z"/> <path d="M1871 334 c-56 -47 -50 -126 11 -164 62 -39 133 -9 144 62 l6 35 -46 -1 c-40 -1 -46 -4 -46 -23 0 -17 4 -20 21 -16 16 4 20 2 17 -8 -11 -33 -85 -21 -94 15 -13 53 33 99 75 76 14 -7 23 -5 36 10 17 19 17 20 -9 30 -45 17 -83 12 -115 -16z"/> <path d="M2055 341 c47 -149 63 -186 80 -186 13 0 24 16 38 58 10 32 23 55 27 50 4 -4 15 -32 25 -61 24 -76 41 -66 81 48 18 52 33 98 34 103 0 4 -11 7 -24 7 -21 0 -27 -8 -41 -55 -8 -30 -17 -55 -20 -55 -2 0 -12 25 -21 55 -22 68 -47 74 -70 18 -8 -21 -18 -47 -23 -58 -7 -16 -11 -9 -25 38 -15 50 -20 57 -42 57 -20 0 -24 -4 -19 -19z"/> <path d="M2362 262 c-23 -53 -42 -100 -42 -104 0 -17 40 -7 50 12 16 29 105 29 113 0 3 -14 14 -20 32 -20 15 0 25 4 23 9 -1 4 -23 52 -47 105 -59 130 -71 130 -129 -2z m83 2 c8 -20 15 -37 15 -38 0 0 -13 -1 -30 -1 -16 0 -30 2 -30 4 0 8 24 71 27 71 1 0 10 -16 18 -36z"/> <path d="M2550 358 c0 -2 20 -48 45 -103 60 -135 73 -135 131 -5 24 52 43 98 43 103 1 4 -10 7 -23 7 -20 0 -28 -11 -54 -77 -24 -62 -32 -74 -38 -58 -36 102 -53 130 -78 133 -14 2 -26 2 -26 0z"/> <path d="M2800 265 c0 -52 1 -98 3 -102 1 -4 30 -8 65 -9 59 -2 62 -1 62 22 0 22 -4 24 -45 24 -39 0 -45 3 -45 21 0 18 5 21 30 17 26 -4 30 -1 30 19 0 19 -5 23 -30 23 -23 0 -30 5 -30 19 0 17 6 19 42 18 36 -2 43 1 43 18 0 18 -8 20 -62 23 l-63 3 0 -96z"/> </g> </svg> 